<?xml version="1.0" standalone="no"?>
<!DOCTYPE svg PUBLIC "-//W3C//DTD SVG 20010904//EN"
 "http://www.w3.org/TR/2001/REC-SVG-20010904/DTD/svg10.dtd">
<svg version="1.0" xmlns="http://www.w3.org/2000/svg"
 width="1024.000000pt" height="310.000000pt" viewBox="0 0 1024.000000 310.000000"
 preserveAspectRatio="xMidYMid meet">

<g transform="translate(0.000000,310.000000) scale(0.100000,-0.100000)"
fill="#000000" stroke="none">
<path d="M5550 2691 c-115 -17 -234 -64 -301 -118 l-36 -29 39 -49 c22 -28 56
-81 75 -120 20 -38 36 -71 38 -73 1 -1 21 17 45 39 65 62 118 82 231 87 84 4
103 1 156 -20 74 -30 111 -59 152 -118 38 -56 60 -119 69 -201 l7 -64 149 -3
149 -3 -7 81 c-23 282 -210 511 -469 575 -81 19 -220 27 -297 16z"/>
<path d="M3962 1553 l3 -1118 148 -3 147 -3 0 446 0 445 229 0 c241 0 322 9
435 49 186 65 313 203 378 411 19 64 23 96 23 215 -1 159 -14 224 -72 344 -26
54 -55 94 -107 145 -82 82 -160 127 -273 158 -72 19 -108 21 -496 25 l-417 5
2 -1119z m748 847 c103 -17 183 -61 234 -130 61 -83 80 -157 74 -296 -6 -144
-30 -208 -107 -284 -47 -47 -69 -60 -131 -81 -70 -22 -89 -24 -295 -24 l-220
0 -3 400 c-1 220 0 406 3 412 6 16 348 18 445 3z"/>
<path d="M5385 1772 c-22 -79 -42 -130 -71 -179 l-24 -41 63 -35 c34 -19 143
-65 242 -102 286 -106 371 -160 418 -264 17 -36 21 -65 21 -137 0 -82 -3 -97
-33 -158 -63 -129 -163 -181 -347 -181 -107 0 -112 1 -186 38 -83 41 -133 89
-167 163 -25 52 -40 116 -41 167 l0 37 -151 0 -150 0 6 -57 c19 -168 41 -240
104 -331 143 -209 409 -316 698 -282 276 33 474 184 549 417 24 74 29 264 10
346 -22 94 -69 181 -134 249 -97 102 -192 151 -527 274 -114 41 -186 76 -232
110 l-32 24 -16 -58z"/>
</g>
</svg>
